<svg width="1920" height="2716" viewBox="0 0 1920 2716" fill="none" xmlns="http://www.w3.org/2000/svg">
<g clip-path="url(#clip0_48_494)">
<path d="M1230.76 -556.5C1193.59 -269.597 1325.86 359.567 2152.26 581C3185.26 857.792 85.2563 1253.5 -22.7437 1477.5C-130.744 1701.5 -130.244 2722.5 384.256 2938.5C898.756 3154.5 1728.76 3395.5 2094.26 3354C2459.76 3312.5 2376.26 4142.5 2152.26 4375C1928.26 4607.5 1795.76 4856.5 1513.26 4997.5C1230.76 5138.5 782.257 5512 433.757 5645C85.257 5778 -280.243 6276 -188.743 6550C-97.243 6824 383.758 7123 857.258 7347C1330.76 7571 1280.26 7471.5 1836.76 7720.5C2393.26 7969.5 2003.26 9066 1787.26 9256.5C1571.26 9447 1812.26 9463.5 1264.26 9638C716.258 9812.5 184.758 9920 43.7578 9928.5" stroke="#D1C4FF" stroke-width="24"/>
</g>
<g clip-path="url(#clip1_48_494)">
<path d="M-61.4012 1036.11C137.771 1245.93 401.882 1832.09 -135.055 2498.18C-806.226 3330.78 1930.97 1822.7 2150.27 1939.95C2369.57 2057.2 2971.13 2882.16 2682.91 3359.97C2394.7 3837.77 1866.39 4521.79 1546.7 4703.76C1227.02 4885.73 1783.82 5506.9 2101.82 5562.62C2419.83 5618.35 2673.65 5741.35 2984.96 5688.68C3296.27 5636.01 3878.74 5673.26 4238.64 5575.22C4598.54 5477.17 5187.37 5663.92 5275.01 5939.18C5362.65 6214.44 5150.42 6739.53 4900.04 7199.62C4649.66 7659.72 4631.78 7549.58 4329.1 8078.8C4026.42 8608.02 4987.9 9263.74 5274.68 9290.25C5561.46 9316.77 5376.53 9472.19 5922.04 9290.04C6467.54 9107.9 6960.22 8881.36 7079.12 8805.1" stroke="#D1C4FF" stroke-width="24"/>
</g>
<defs>
<clipPath id="clip0_48_494">
<rect width="2566" height="1304" fill="white" transform="translate(-203 -557)"/>
</clipPath>
<clipPath id="clip1_48_494">
<rect width="2566" height="1485.7" fill="white" transform="matrix(-0.807708 0.589582 0.589582 0.807708 959.578 3)"/>
</clipPath>
</defs>
</svg>
